<svg width="306" height="313" viewBox="0 0 306 313" fill="none" xmlns="http://www.w3.org/2000/svg">
<path opacity="0.7" d="M208.033 0.00900225C181.018 0.462434 160.191 22.1264 137.066 35.8301C102.148 56.5225 57.301 60.7257 27.8064 88.3706C7.61738 107.321 -2.3487 135.851 0.469396 163.108C3.28749 190.364 18.5522 215.915 40.6273 232.713C54.7031 243.416 71.2227 250.634 88.0799 256.284C105.165 261.999 122.954 266.238 141.007 266.461C166.025 266.771 190.603 259.35 213.236 248.878C228.977 241.602 244.154 232.706 256.535 220.708C268.233 209.379 277.201 195.46 283.343 180.504C298.527 143.538 296.113 101.168 282.947 63.4607C272.056 32.2746 245.431 -0.624363 208.033 0.00900225Z" fill="#F2F2F2"/>
<path opacity="0.1" d="M224.78 152.564C224.589 147.144 224.229 141.365 223.635 135.384C222.835 123.436 221.308 112.28 218.542 105.263C203.306 102.204 124.157 107.904 124.099 107.904L123.607 105.745L123.409 104.889L123.057 103.384L122.961 103.039C122.448 101.009 121.868 99.0011 121.193 97.0075C121.193 97.0075 61.1906 91.7534 41.2878 96.8491C41.2878 97.0219 41.2878 97.1874 41.2878 97.3601L41.3465 102.175C41.4052 111.496 41.185 120.24 41.6767 129.842V129.914C41.5815 129.905 41.4857 129.905 41.3905 129.914C40.6182 130.014 39.8892 130.322 39.2843 130.803C38.6793 131.285 38.2221 131.921 37.9633 132.641C37.7658 133.2 37.6932 133.794 37.7505 134.383L38.0147 137.413C38.0147 137.464 38.0147 137.507 38.0147 137.557C38.7486 145.201 39.4824 152.772 39.4824 152.772C39.4824 152.772 39.864 152.808 40.4878 152.837L43.783 153.067C36.7671 153.701 29.1054 162.784 29.443 170.593C29.7805 178.402 22.1042 193.106 24.0196 201.542C25.4873 208.134 33.039 218.736 36.7157 226.79L36.4295 228.388L20.0126 260.718C21.1134 259.135 31.0208 301.383 77.035 292.437L109.773 240.126C113.425 237.426 116.767 234.344 119.739 230.935C120.994 229.713 122.038 228.298 122.829 226.747V226.747C123.998 224.915 124.89 222.927 125.478 220.845C125.625 220.298 125.779 219.758 125.941 219.204C128.612 212.532 132.179 203.427 134.791 197.122C169.284 196.115 205.501 194.049 223.686 189.853H223.723C225.484 178.121 225.521 164.957 224.78 152.564ZM47.6432 182.123C47.3585 180.174 47.1869 178.211 47.1295 176.243C47.5331 178.316 47.9734 180.381 48.4358 182.454C48.1716 182.339 47.9074 182.224 47.6432 182.123Z" fill="black"/>
<path d="M16.2625 258.652C16.2625 258.652 30.9988 301.383 77.035 292.437C77.035 292.437 87.2506 245.402 95.8077 238.457C101.326 233.994 113.516 225.991 116.121 220.197C118.727 214.403 129.192 186.888 131.217 183.577C133.243 180.266 109.26 142.171 109.26 142.171L58.7394 167.736L30.6318 216.678C30.6318 216.678 25.2378 248.346 16.2625 258.652Z" fill="white"/>
<path d="M30.1401 220.492C30.1401 220.492 26.5368 246.913 14.6259 260.718" stroke="#263238" stroke-linecap="round" stroke-linejoin="round"/>
<path d="M77.035 292.437C77.035 292.437 87.1919 246.928 95.8077 238.457C95.8077 238.457 115.27 227.358 118.778 214.295C121.207 205.248 125.625 194.819 127.739 190.083" stroke="#263238" stroke-linecap="round" stroke-linejoin="round"/>
<path d="M81.1301 191.544C80.3962 191.084 92.9089 200.901 93.3932 214.317" stroke="#263238" stroke-linecap="round" stroke-linejoin="round"/>
<path d="M217.023 183.318C176.454 192.674 45.7938 191.444 45.7938 191.444C44.693 189.169 43.3647 183.44 42.0804 176.804C39.5118 163.482 37.112 146.504 37.112 146.504L32.7894 146.208C32.7894 146.208 32.0556 138.637 31.3217 130.993C30.5878 123.35 34.9911 123.357 34.9911 123.357L34.6755 96.8995L34.5948 90.2923C54.4976 85.1966 114.5 90.4507 114.5 90.4507L116.371 96.8275L117.413 101.347L211.849 98.7348C220.508 120.694 217.023 183.318 217.023 183.318Z" fill="#FF0137"/>
<path d="M201.333 119.135L139.394 122.173C136.844 122.298 134.881 124.426 135.008 126.926L135.638 139.269C135.765 141.77 137.935 143.695 140.484 143.57L202.424 140.533C204.973 140.408 206.937 138.28 206.809 135.779L206.18 123.436C206.052 120.936 203.882 119.01 201.333 119.135Z" fill="#263238"/>
<path d="M206.469 148.598L206.668 150.649L135.349 153.355L135.29 151.513L206.469 148.598Z" fill="#263238"/>
<path d="M206.822 155.73L206.888 157.573L135.577 160.157L135.511 158.322L206.822 155.73Z" fill="#263238"/>
<path opacity="0.3" d="M211.834 98.7348C211.834 98.7348 222.358 147.677 217.023 183.318C217.023 183.318 150.474 190.976 127.687 189.738L126.755 177.826L128.663 177.538C128.663 177.538 119.475 109.552 117.391 101.347C117.391 101.347 196.643 95.6687 211.834 98.7348Z" fill="black"/>
<path opacity="0.8" d="M124.561 177.654L125.346 186.657C125.346 186.657 58.2697 189.536 52.3693 187.442C46.469 185.348 52.6849 182.008 68.2872 180.806C83.8895 179.604 124.561 177.654 124.561 177.654Z" fill="white"/>
<path d="M84.5133 139.465C87.8976 139.465 90.6412 137.028 90.6412 134.023C90.6412 131.018 87.8976 128.582 84.5133 128.582C81.1289 128.582 78.3854 131.018 78.3854 134.023C78.3854 137.028 81.1289 139.465 84.5133 139.465Z" fill="#263238"/>
<path d="M37.112 146.496C38.4944 161.721 41.3999 176.776 45.7865 191.444C74.239 191.206 102.684 190.897 131.129 190.004C159.574 189.112 188.805 187.226 216.993 183.318C216.993 183.318 222.042 139.587 211.805 98.7348C200.488 96.4245 117.677 101.333 117.677 101.333" stroke="#263238" stroke-linecap="round" stroke-linejoin="round"/>
<path d="M124.561 177.654L125.346 186.657L61.4988 188.097C58.8642 188.32 54.7618 188.658 52.34 187.442C51.2392 186.888 50.4466 185.535 50.9676 184.426C51.4373 183.433 52.6702 183.08 53.7711 182.864C61.5795 181.288 69.5495 180.626 77.4974 180.05C94.5136 178.812 111.557 177.975 128.627 177.538C128.267 177.538 124.106 143.862 123.644 140.753C121.838 128.589 120.121 116.375 117.89 104.277C117.085 99.5926 115.935 94.9718 114.448 90.4507C88.146 88.6082 60.6769 86.9024 34.5361 90.2924C34.7783 101.715 34.3453 111.884 34.9397 123.357" stroke="#263238" stroke-linecap="round" stroke-linejoin="round"/>
<path d="M44.8104 188.054C44.6533 187.588 44.5595 187.104 44.5315 186.614" stroke="#263238" stroke-linecap="round" stroke-linejoin="round"/>
<path d="M44.9572 183.886C45.9332 181.49 48.8614 178.784 56.824 177.92C71.3475 176.336 103.007 173.486 121.582 172.795" stroke="#263238" stroke-linecap="round" stroke-linejoin="round" stroke-dasharray="3.91 3.91"/>
<path d="M123.02 172.745L124.488 172.695L124.29 171.255" stroke="#263238" stroke-linecap="round" stroke-linejoin="round"/>
<path d="M123.879 168.499C120.539 144.942 116.841 121.558 112.606 98.1302" stroke="#263238" stroke-linecap="round" stroke-linejoin="round" stroke-dasharray="3.88 3.88"/>
<path d="M112.371 96.7555L112.107 95.3161L110.639 95.2153" stroke="#263238" stroke-linecap="round" stroke-linejoin="round"/>
<path d="M107.675 95.0282C95.4701 94.2293 60.7649 92.2356 37.611 93.7902" stroke="#263238" stroke-linecap="round" stroke-linejoin="round" stroke-dasharray="4.07 4.07"/>
<path d="M36.1139 93.8982L34.6462 94.0134" stroke="#263238" stroke-linecap="round" stroke-linejoin="round"/>
<path d="M32.7894 146.208L31.0355 127.855C30.9823 127.304 31.043 126.748 31.2139 126.22C31.3849 125.693 31.6627 125.204 32.0306 124.784C32.3985 124.364 32.849 124.021 33.3552 123.776C33.8614 123.531 34.4128 123.388 34.9764 123.357C45.7644 122.745 73.6665 121.306 84.3738 122.148C89.511 122.551 95.0958 124.17 97.5837 128.992C99.6532 132.965 99.9614 138.925 96.4902 142.192C91.2062 147.158 81.1814 146.777 74.371 147.015C61.6896 147.49 32.7968 146.316 32.7894 146.208Z" stroke="#263238" stroke-linecap="round" stroke-linejoin="round"/>
<path d="M99.1322 134.988C99.1322 134.477 101.803 145.532 92.0429 149.181C82.2823 152.83 37.112 151.678 37.112 151.678V146.496C37.112 146.496 69.0651 147.158 74.3857 147.015C79.7064 146.871 98.5597 148.605 99.1322 134.988Z" fill="#263238"/>
<path d="M89.7458 196.741C89.7458 196.741 97.7305 201.326 100.717 209.941" stroke="#263238" stroke-linecap="round" stroke-linejoin="round"/>
<path d="M31.2556 126.113C31.2556 126.113 70.4154 124.307 80.3815 124.631C90.3476 124.955 95.2279 127.107 96.2187 133.232C97.2094 139.357 91.1696 143.171 86.3553 143.891C81.5411 144.611 32.7821 144.819 32.7821 144.819" stroke="#263238" stroke-linecap="round" stroke-linejoin="round" stroke-dasharray="4 4"/>
<path d="M58.167 200.311C58.167 200.311 52.1052 179.662 40.9502 175.595C40.9502 175.595 38.7486 161.503 43.5041 160.725C48.2596 159.948 61.6896 151.268 58.1817 140.436C54.6737 129.604 44.1426 145.87 37.1267 146.496C30.1108 147.122 22.4491 156.213 22.7647 164.029C23.0802 171.845 15.4259 186.549 17.3413 194.978C19.2567 203.406 31.0648 218.441 32.0189 226.264" fill="white"/>
<path d="M58.167 200.311C58.167 200.311 52.1052 179.662 40.9502 175.595C40.9502 175.595 38.7486 161.503 43.5041 160.725C48.2596 159.948 61.6896 151.268 58.1817 140.436C54.6737 129.604 44.1426 145.87 37.1267 146.496C30.1108 147.122 22.4491 156.213 22.7647 164.029C23.0802 171.845 15.4259 186.549 17.3413 194.978C19.2567 203.406 31.0648 218.441 32.0189 226.264" stroke="#263238" stroke-linecap="round" stroke-linejoin="round"/>
<path d="M43.4821 143.322C43.4821 143.322 51.885 144.819 56.4497 139.587C61.0144 134.354 55.7599 134.023 55.7599 134.023L43.4821 143.322Z" fill="white" stroke="#263238" stroke-linecap="round" stroke-linejoin="round"/>
<path d="M28.4742 154.982C30.0081 155.085 31.4914 155.563 32.7894 156.371" stroke="#263238" stroke-linecap="round" stroke-linejoin="round"/>
<path d="M28.2174 157.976C29.7453 158.118 31.2009 158.682 32.4152 159.603" stroke="#263238" stroke-linecap="round" stroke-linejoin="round"/>
<path d="M50.9016 185.635C50.9016 185.635 86.8617 183.815 96.3287 184.347" stroke="#263238" stroke-linecap="round" stroke-linejoin="round"/>
<path d="M87.5736 181.655C87.5736 181.655 96.6223 180.936 102.251 181.655" stroke="#263238" stroke-linecap="round" stroke-linejoin="round"/>
<path d="M110.5 184.246H125.141" stroke="#263238" stroke-linecap="round" stroke-linejoin="round"/>
<path d="M119.358 105.378C119.358 105.378 183.668 99.7425 209.508 102.96C209.508 102.96 216.479 115.533 214.96 179.971C185.918 183.622 156.697 185.753 127.423 186.355" stroke="#263238" stroke-linecap="round" stroke-linejoin="round" stroke-dasharray="4 4"/>
<g opacity="0.1">
<path opacity="0.1" d="M293.449 194.553C291.621 186.931 288.943 184.066 286.257 181.864C286.257 181.864 286.198 177.546 282.756 175.084C281.837 174.29 280.855 173.568 279.821 172.925C276.592 170.55 273.032 167.887 273.032 167.887C271.359 163.137 269.091 157.386 266.64 151.729L266.765 153.017C264.255 147.007 261.797 141.026 261.107 139.04V138.997C261.841 140.911 262.574 142.761 263.382 144.467L254.194 112.618C253.973 111.337 253.746 110.078 253.518 108.861C253.078 105.263 251.882 98.4829 248.998 98.0007C248.89 97.9936 248.782 97.9936 248.675 98.0007C248.675 98.0007 245.277 96.5612 245.277 102.47C241.233 103.795 239.67 106.789 239.281 110.308C239.071 111.424 239.046 112.567 239.208 113.691C239.281 114.994 239.435 116.325 239.641 117.649L226.622 100.865L225.367 99.2674L209.31 78.5391L187.726 50.6134C186.923 49.5768 185.92 48.7055 184.773 48.0493C183.627 47.3931 182.359 46.9649 181.044 46.7891C179.729 46.6133 178.391 46.6934 177.107 47.0248C175.823 47.3562 174.619 47.9324 173.562 48.7205L146.768 68.6787L136.311 76.4663C128.289 80.5615 130.381 88.6514 132.604 91.5231L179.331 151.844C179.087 151.814 178.842 151.802 178.597 151.808C178.597 151.808 177.261 148.72 173.959 149.21C173.255 149.242 172.575 149.463 171.992 149.85C171.459 150.125 171.007 150.529 170.678 151.023C170.312 151.457 169.983 151.919 169.695 152.405C168.014 155.227 169.57 162.129 171.999 170.557C172.153 171.104 172.307 171.629 172.454 172.119V172.198L173.078 174.307C175.456 182.397 179.903 198.281 180.725 206.069C180.784 206.788 180.82 207.558 180.835 208.278C180.886 217.246 176.828 232.26 178.575 238.464C178.802 239.277 179.037 240.054 179.272 240.825C180.571 244.97 181.73 248.893 183.77 252.787C186.251 257.537 189.209 262.093 191.975 266.692C197.054 275.141 202.308 283.49 207.739 291.739C210.242 295.524 213.17 298.979 216.002 302.535C217.301 304.168 220.134 306.623 220.626 308.717C220.626 308.717 245.747 310.754 259.808 301.995L258.487 282.389L267.917 229.237C270.61 225.228 278.925 217.397 280.584 214.921C281.443 213.691 282.279 212.467 283.094 211.272C289.295 205.594 292.399 201.196 293.764 196.079C293.794 196.093 293.698 195.51 293.449 194.553ZM206.484 206.162L206.359 205.932C208.925 207.071 211.643 207.847 214.432 208.235C211.504 207.904 208.194 207.443 206.484 206.162ZM217.081 208.545L218.432 208.638C217.98 208.637 217.529 208.605 217.081 208.545V208.545ZM206.22 205.622L204.532 202.34C202.184 195.733 196.878 180.158 196.856 180.093C195.817 175.605 194.428 171.202 192.702 166.922C193.95 167.354 195.289 167.475 196.596 167.274C197.904 167.073 199.141 166.556 200.195 165.771L213.038 156.206C214.366 156.99 215.724 157.695 217.052 158.314L229.08 167.534L219.54 205.989L206.22 205.622ZM254.905 117.052C255.904 121.644 257.481 128.251 259.573 134.65C257.542 128.914 255.977 123.03 254.891 117.052H254.905Z" fill="black"/>
<path opacity="0.1" d="M200.386 301.836L200.459 302.182C200.459 302.182 200.437 302.053 200.386 301.836Z" fill="black"/>
</g>
<path d="M244.969 118.463C245.703 117.988 256.461 112.244 261.848 129.467C267.235 146.691 273.553 175.998 273.553 175.998L260.754 178.438C260.754 178.438 248.895 172.248 238.268 156.745C238.268 156.745 223.371 152.96 216.883 143.963C211.012 135.787 229.124 105.767 229.124 105.767L244.969 118.463Z" fill="white"/>
<path d="M240.367 139.896C243.538 144.56 249.541 154.37 257.643 157.465" stroke="#263238" stroke-linecap="round" stroke-linejoin="round"/>
<path d="M231.399 144.913C232.867 145.496 236.536 147.569 238.268 147.648C238.268 147.648 245.747 162.165 258.083 166.879" stroke="#263238" stroke-linecap="round" stroke-linejoin="round"/>
<path d="M224.537 150.261C229.124 154.025 234.592 156.594 238.268 156.738C238.268 156.738 245.747 171.255 258.083 175.969" stroke="#263238" stroke-linecap="round" stroke-linejoin="round"/>
<path d="M185.937 45.0651L145.356 75.2958C141.831 77.9213 141.144 82.8519 143.822 86.3085L200.184 159.08C202.862 162.536 207.889 163.21 211.414 160.584L251.994 130.354C255.519 127.728 256.206 122.797 253.529 119.341L197.166 46.5697C194.489 43.1131 189.461 42.4395 185.937 45.0651Z" fill="#263238"/>
<path d="M250.84 128.776L213.603 156.522C212.546 157.312 211.341 157.889 210.057 158.221C208.773 158.553 207.434 158.633 206.118 158.456C204.803 158.28 203.535 157.85 202.389 157.192C201.243 156.534 200.24 155.661 199.439 154.622L145.609 85.1247C144.732 84.0021 144.116 82.7051 143.803 81.3245C143.37 79.4705 143.491 77.5331 144.154 75.7454C144.817 73.9577 145.992 72.396 147.539 71.2482L158.004 63.4607L184.791 43.4953C185.848 42.7076 187.053 42.1319 188.337 41.801C189.621 41.4702 190.959 41.3907 192.274 41.5672C193.589 41.7436 194.856 42.1726 196.003 42.8294C197.149 43.4863 198.152 44.3582 198.954 45.3954L220.553 73.2779L236.61 94.0062L252.755 114.878C253.561 115.914 254.15 117.095 254.49 118.354C254.83 119.614 254.913 120.926 254.735 122.217C254.557 123.508 254.121 124.751 253.453 125.877C252.785 127.002 251.897 127.988 250.84 128.776V128.776Z" fill="#FF0137"/>
<path opacity="0.1" d="M220.523 73.2779L157.982 63.4535L184.791 43.4953C185.848 42.7076 187.053 42.1319 188.337 41.801C189.621 41.4702 190.959 41.3907 192.274 41.5672C193.589 41.7436 194.856 42.1726 196.003 42.8294C197.149 43.4863 198.152 44.3582 198.954 45.3954L220.523 73.2779Z" fill="black"/>
<path opacity="0.1" d="M250.84 128.776L213.603 156.522C212.546 157.312 211.341 157.889 210.057 158.221C208.773 158.553 207.434 158.633 206.118 158.456C204.803 158.28 203.535 157.85 202.389 157.192C201.243 156.534 200.24 155.661 199.439 154.622L145.609 85.1247C144.732 84.0021 144.116 82.7051 143.803 81.3245L237.843 95.6687L252.755 114.922C254.368 117.01 255.072 119.64 254.713 122.237C254.354 124.833 252.962 127.184 250.84 128.776V128.776Z" fill="black"/>
<path d="M190.076 50.5517L183.501 55.4493C182.184 56.4303 181.928 58.2725 182.928 59.564L190.887 69.8403C191.887 71.1318 193.766 71.3835 195.083 70.4025L201.657 65.5048C202.974 64.5238 203.231 62.6816 202.23 61.3902L194.271 51.1138C193.271 49.8224 191.392 49.5707 190.076 50.5517Z" fill="white" stroke="#263238" stroke-linecap="round" stroke-linejoin="round"/>
<path d="M186.926 52.8878L198.279 68.0166" stroke="#263238" stroke-linecap="round" stroke-linejoin="round"/>
<path d="M186.926 64.7274L198.279 56.2849" stroke="#263238" stroke-linecap="round" stroke-linejoin="round"/>
<path d="M208.913 151.995L206.976 153.391L183.337 122.875L185.26 121.45L208.913 151.995Z" fill="#263238"/>
<path d="M212.194 149.613L210.256 151.023L186.589 120.456L188.497 119.031L212.194 149.613Z" fill="#263238"/>
<path d="M215.467 147.245L213.537 148.641L189.832 118.045L191.748 116.613L215.467 147.245Z" fill="#263238"/>
<path d="M218.747 144.863L216.81 146.259L193.421 116.066L195.329 114.634L218.747 144.863Z" fill="#263238"/>
<path d="M222.285 142.3L220.347 143.704L196.922 113.461L198.837 112.028L222.285 142.3Z" fill="#263238"/>
<path d="M222.285 106.717L220.347 108.113L196.922 77.8698L198.837 76.4447L222.285 106.717Z" fill="#263238"/>
<path d="M171.267 53.6495L168.269 55.8828L234.278 141.108L237.276 138.875L171.267 53.6495Z" fill="#263238"/>
<path d="M250.84 128.776L213.603 156.522C212.546 157.312 211.341 157.889 210.057 158.221C208.773 158.553 207.434 158.633 206.118 158.456C204.803 158.28 203.535 157.85 202.389 157.192C201.243 156.534 200.24 155.661 199.439 154.622L145.609 85.1247C144.732 84.0021 144.116 82.7051 143.803 81.3245C143.37 79.4705 143.491 77.5331 144.154 75.7454C144.817 73.9577 145.992 72.396 147.539 71.2482L158.004 63.4607L184.791 43.4953C185.848 42.7076 187.053 42.1319 188.337 41.801C189.621 41.4702 190.959 41.3907 192.274 41.5672C193.589 41.7436 194.856 42.1726 196.003 42.8294C197.149 43.4863 198.152 44.3582 198.954 45.3954L220.553 73.2779L236.61 94.0062L252.755 114.878C253.561 115.914 254.15 117.095 254.49 118.354C254.83 119.614 254.913 120.926 254.735 122.217C254.557 123.508 254.121 124.751 253.453 125.877C252.785 127.002 251.897 127.988 250.84 128.776V128.776Z" stroke="#263238" stroke-linecap="round" stroke-linejoin="round"/>
<path d="M220.655 308.71C220.655 308.71 263.998 323.824 277.113 290.904C277.113 290.904 256.601 266.433 267.8 246.438C274.845 233.843 294.329 206.04 294.329 206.04C294.329 206.04 302.468 198.461 305 190.846C305 190.846 303.606 182.361 297.47 176.617C297.47 176.617 297.404 172.299 293.963 169.837C290.521 167.376 284.209 162.64 284.209 162.64C284.209 162.64 273.832 138.227 272.291 133.815C270.75 129.403 267.653 121.061 266.104 111.848C264.556 102.636 263.125 92.7178 259.837 92.7466C259.837 92.7466 256.447 91.3072 256.447 97.2162C256.447 97.2162 249.328 100.815 250.377 108.43C251.427 116.044 252.396 119.981 252.117 124.264C251.838 128.546 253.24 143.416 256.747 148.08C256.747 148.08 257.922 168.952 259.683 174.386C259.742 174.552 259.793 174.703 259.844 174.839C261.694 179.438 243.215 197.151 233.212 201.945C233.212 201.945 232.163 203.859 228.28 203.334C224.398 202.808 217.83 202.564 216.7 199.735C215.57 196.906 208.047 174.839 208.047 174.839C208.047 174.839 201.963 146.554 189.81 146.561C189.81 146.561 187.968 142.243 183.205 144.603C178.443 146.964 181.562 159.833 183.668 166.872C185.774 173.911 191.109 192.415 191.975 200.93C192.841 209.444 187.924 226.502 189.774 233.21C191.623 239.918 193.678 244.445 199.578 255.428C205.479 266.411 218.549 299.159 220.655 308.71Z" fill="white"/>
<path d="M220.655 308.71C220.655 308.71 211.379 274.465 197.744 252.319C184.108 230.172 192.129 222.342 192.129 203.909C192.129 185.477 176.813 154.097 180.945 147.18C185.077 140.263 190.713 145.798 193.069 152.254C195.425 158.71 192.129 162.402 185.524 162.863" stroke="#263238" stroke-linecap="round" stroke-linejoin="round"/>
<path d="M189.81 146.59C189.81 146.59 197.729 146.115 202.595 158.53C207.46 170.946 215.254 202.434 223.371 212.014" stroke="#263238" stroke-linecap="round" stroke-linejoin="round"/>
<path d="M216.964 200.383C217.008 200.484 228.302 206.659 245.827 201.246" stroke="#263238" stroke-linecap="round" stroke-linejoin="round"/>
<path d="M191.315 183.03C192.195 181.973 193.344 181.162 194.645 180.679C195.946 180.195 197.354 180.055 198.727 180.273" stroke="#263238" stroke-linecap="round" stroke-linejoin="round"/>
<path d="M192.819 186.938C193.58 186.046 194.582 185.382 195.71 185.021C196.837 184.661 198.046 184.62 199.197 184.901" stroke="#263238" stroke-linecap="round" stroke-linejoin="round"/>
<path d="M256.447 97.1946C244.925 100.959 253.511 118.024 252.117 124.249C250.722 130.475 254.318 142.394 257.085 148.857C257.085 156.436 259.837 174.825 259.837 174.825C258.135 180.676 243.927 197.921 230.122 203.319" stroke="#263238" stroke-linecap="round" stroke-linejoin="round"/>
<path d="M264.901 105.788C264.901 105.788 264.042 92.7251 259.837 92.7251C255.632 92.7251 255.889 101.527 257.635 108.063C259.382 114.598 266.178 113.662 264.901 105.788Z" stroke="#263238" stroke-linecap="round" stroke-linejoin="round"/>
<path d="M264.901 105.788C264.901 105.788 268.482 126.322 274.551 139.22" stroke="#263238" stroke-linecap="round" stroke-linejoin="round"/>
<path d="M281.707 187.312C284.642 182.648 285.941 178.237 287.027 172.623C286.756 169.103 282.624 157.616 277.824 146.489" stroke="#263238" stroke-linecap="round" stroke-linejoin="round"/>
<path d="M284.598 163.727C289.361 167.239 297.647 169.938 296.693 175.998C295.64 182.061 293.477 187.886 290.308 193.193" stroke="#263238" stroke-linecap="round" stroke-linejoin="round"/>
<path d="M278.169 292.437C278.169 292.437 261.576 269.844 264.901 254.24C267.345 242.761 283.057 222.687 294.329 206.061C300.538 200.383 303.642 195.985 305 190.868C303.011 181.259 299.782 178.46 296.678 175.998" stroke="#263238" stroke-linecap="round" stroke-linejoin="round"/>
<path d="M282.595 167.455C280.747 166.945 278.811 166.813 276.909 167.067C275.006 167.321 273.178 167.955 271.535 168.93" stroke="#263238" stroke-linecap="round" stroke-linejoin="round"/>
<path d="M281.663 171.32C279.409 170.985 277.105 171.382 275.102 172.45" stroke="#263238" stroke-linecap="round" stroke-linejoin="round"/>
</svg>
